<?xml version="1.0" standalone="no"?><!DOCTYPE svg PUBLIC "-//W3C//DTD SVG 1.1//EN" "http://www.w3.org/Graphics/SVG/1.1/DTD/svg11.dtd"><svg t="1562858813380" class="icon" viewBox="0 0 1024 1024" version="1.1" xmlns="http://www.w3.org/2000/svg" p-id="35068" xmlns:xlink="http://www.w3.org/1999/xlink" width="200" height="200"><defs><style type="text/css"></style></defs><path fill="#777777" d="M933.156571 239.030857L528.237714 5.339429a32.914286 32.914286 0 0 0-33.206857 0L90.112 239.030857a33.426286 33.426286 0 0 0-16.676571 28.745143v467.382857c0 11.995429 6.290286 22.966857 16.676571 28.818286l404.845714 233.837714a34.084571 34.084571 0 0 0 33.28 0l404.845715-233.837714a33.426286 33.426286 0 0 0 16.676571-28.745143v-467.382857a33.206857 33.206857 0 0 0-16.603429-28.818286z m-58.514285 472.137143L511.634286 920.868571 148.48 711.168v-419.108571l363.008-209.627429 363.081143 209.627429v419.108571z" p-id="35069"></path><path fill="#777777" d="M280.064 341.284571a33.426286 33.426286 0 0 0-48.713143 37.522286 33.206857 33.206857 0 0 0 15.506286 20.187429l231.131428 133.412571v264.045714a33.060571 33.060571 0 0 0 33.206858 33.206858 33.060571 33.060571 0 0 0 33.206857-33.206858V532.845714l232.009143-133.924571a33.353143 33.353143 0 0 0-33.206858-57.636572L511.634286 475.062857 280.064 341.284571z" p-id="35070"></path></svg>