<?xml version="1.0" standalone="no"?><!DOCTYPE svg PUBLIC "-//W3C//DTD SVG 1.1//EN" "http://www.w3.org/Graphics/SVG/1.1/DTD/svg11.dtd"><svg t="1562571928496" class="icon" viewBox="0 0 1024 1024" version="1.1" xmlns="http://www.w3.org/2000/svg" p-id="2128" xmlns:xlink="http://www.w3.org/1999/xlink" width="200" height="200"><defs><style type="text/css"></style></defs><path d="M831.792027 1024H191.912004a127.976004 127.976004 0 0 1-127.976004-127.976004V128.167969a127.976004 127.976004 0 0 1 127.976004-127.976005h447.916016v63.988002H191.912004a63.988002 63.988002 0 0 0-63.988002 63.988003v767.856027a63.988002 63.988002 0 0 0 63.988002 63.988002h639.880023a63.988002 63.988002 0 0 0 63.988002-63.988002V320.131975h63.988002v575.892021a127.976004 127.976004 0 0 1-127.976004 127.976004z" fill="#656B75" p-id="2129"></path><path d="M703.752034 320.259951a63.988002 63.988002 0 0 1-64.05199-64.05199V0.063988l320.195963 320.195963H703.752034z m-0.255952-96.557895c0 18.108605 14.653253 32.761857 32.761858 32.761857h63.604074L703.496082 160.097982v63.604074zM735.810024 768.047991h-447.916016a31.994001 31.994001 0 0 1 0-63.988002h447.916016a31.994001 31.994001 0 0 1 0 63.988002z m-127.976005-191.964007h-319.940011a31.994001 31.994001 0 0 1 0-63.988002h319.940011a31.994001 31.994001 0 0 1 0 63.988002z" fill="#656B75" p-id="2130"></path></svg>