<!-- Generated by IcoMoon.io -->
<svg version="1.1" xmlns="http://www.w3.org/2000/svg" width="32" height="32" viewBox="0 0 32 32">
<title>external-link</title>
<path fill="#444" d="M13.963 12.872c0.192 0 0.384 0.064 0.533 0.213l4.992 4.992c0.299 0.299 0.299 0.768 0 1.067l-0.213 0.213c-0.149 0.149-0.341 0.213-0.533 0.213s-0.384-0.064-0.533-0.213l-4.992-4.971c-0.299-0.299-0.299-0.768 0-1.067l0.213-0.213c0.149-0.149 0.341-0.235 0.533-0.235zM13.963 10.739c-0.768 0-1.493 0.299-2.048 0.853l-0.213 0.213c-1.131 1.131-1.131 2.965 0 4.096l4.992 4.992c0.555 0.555 1.28 0.853 2.048 0.853s1.493-0.299 2.048-0.853l0.213-0.213c1.131-1.131 1.131-2.965 0-4.096l-4.992-4.992c-0.555-0.533-1.28-0.853-2.048-0.853v0z"></path>
<path fill="#444" d="M25.483 31.966c-1.771 0-3.435-0.683-4.672-1.92l-5.205-5.205c-2.112-2.112-2.539-5.397-1.045-8l1.835 1.067c-1.024 1.749-0.725 3.989 0.704 5.419l5.205 5.205c0.832 0.832 1.963 1.301 3.157 1.301 0 0 0 0 0 0 1.195 0 2.325-0.469 3.157-1.301s1.301-1.963 1.301-3.157c0-1.195-0.448-2.325-1.301-3.157l-5.205-5.205c-1.429-1.429-3.669-1.728-5.419-0.683l-1.067-1.835c2.603-1.515 5.888-1.088 8.021 1.024l5.205 5.205c1.237 1.237 1.92 2.901 1.92 4.672s-0.683 3.435-1.941 4.672c-1.237 1.216-2.901 1.899-4.651 1.899 0 0 0 0 0 0zM25.483 28.936c-0.917 0-1.835-0.341-2.517-1.045l-5.227-5.205c-0.917-0.917-1.28-2.283-0.896-3.541l2.048 0.597c-0.149 0.512 0 1.045 0.363 1.429l5.205 5.205c0.555 0.555 1.472 0.555 2.027 0s0.576-1.472 0-2.048l-5.205-5.184c-0.384-0.384-0.939-0.512-1.451-0.341l-0.661-2.027c1.28-0.405 2.667-0.085 3.627 0.875l5.205 5.205c0.683 0.683 1.045 1.579 1.045 2.539s-0.384 1.856-1.045 2.517c-0.704 0.683-1.621 1.024-2.517 1.024z"></path>
<path fill="#444" d="M12.384 18.888c-1.707 0-3.392-0.661-4.672-1.941l-5.205-5.205c-2.581-2.581-2.581-6.763 0-9.344 2.56-2.581 6.763-2.581 9.344 0l5.205 5.205c2.155 2.155 2.539 5.611 0.896 8.213l-1.792-1.152c1.109-1.749 0.853-4.096-0.597-5.568l-5.227-5.184c-1.749-1.749-4.587-1.749-6.336 0s-1.728 4.565 0 6.315l5.227 5.205c1.451 1.451 3.755 1.728 5.504 0.64l1.109 1.813c-1.088 0.683-2.283 1.003-3.456 1.003zM12.384 15.838c-0.939 0-1.856-0.363-2.517-1.045l-5.227-5.205c-1.387-1.387-1.387-3.648 0-5.035 0.683-0.683 1.579-1.045 2.517-1.045 0 0 0 0 0 0 0.96 0 1.856 0.363 2.517 1.045l5.205 5.205c0.832 0.832 1.216 2.048 0.981 3.221l-2.091-0.405c0.085-0.469-0.064-0.96-0.384-1.301l-5.205-5.227c-0.277-0.277-0.64-0.427-1.024-0.427 0 0 0 0 0 0-0.384 0-0.747 0.149-1.024 0.427-0.555 0.555-0.555 1.472 0 2.027l5.227 5.227c0.341 0.341 0.811 0.491 1.301 0.405l0.405 2.091c-0.235 0.021-0.469 0.043-0.683 0.043z"></path>
<path fill="#444" d="M31.947 11.592h-2.133v-8.747h-8.747v-2.133h10.88z"></path>
<path fill="#444" d="M30.071 1.091l1.508 1.508-9.066 9.066-1.508-1.508 9.066-9.066z"></path>
<path fill="#444" d="M9.436 21.715l1.508 1.508-8.96 8.96-1.508-1.508 8.96-8.96z"></path>
</svg>
