<?xml version="1.0" standalone="no"?><!DOCTYPE svg PUBLIC "-//W3C//DTD SVG 1.1//EN" "http://www.w3.org/Graphics/SVG/1.1/DTD/svg11.dtd"><svg t="1586941058242" class="icon" viewBox="0 0 1026 1024" version="1.1" xmlns="http://www.w3.org/2000/svg" p-id="4571" xmlns:xlink="http://www.w3.org/1999/xlink" width="50.09765625" height="50"><defs><style type="text/css"></style></defs><path d="M444.261496 409.549093a23.544618 23.544618 0 0 1 16.958489 6.777032l158.830723 158.830723a23.767338 23.767338 0 0 1 0 33.948795l-6.777032 6.777032c-4.740741 4.740741-10.849615 6.777032-16.958488 6.777032s-12.217748-2.036291-16.958489-6.777032l-158.830723-158.162566a23.767338 23.767338 0 0 1 0-33.948794l6.777032-6.777032a24.308228 24.308228 0 0 1 16.958488-7.477007z m0-67.865772c-24.435496 0-47.502859 9.513299-65.161322 27.139945l-6.777032 6.777032a92.142182 92.142182 0 0 0 0 130.322645l158.830723 158.830723c17.658464 17.658464 40.725826 27.139945 65.161323 27.139946s47.502859-9.513299 65.161322-27.139946l6.777032-6.777032a92.142182 92.142182 0 0 0 0-130.322644l-158.830723-158.830724c-17.658464-16.958489-40.725826-27.139945-65.161323-27.139945z" fill="#3e69c5" p-id="4572"></path><path d="M810.793935 1017.063883a208.910763 208.910763 0 0 1-148.649267-61.08874l-165.607755-165.607755c-67.197614-67.197614-80.783495-171.716629-33.24882-254.536416l58.384291 33.948794a142.794929 142.794929 0 0 0 22.399204 172.416605l165.607756 165.607755a141.713149 141.713149 0 0 0 100.446433 41.393985c38.021377 0 73.974646-14.922197 100.446433-41.393985s41.393985-62.456873 41.393984-100.446433c0-38.021377-14.254039-73.974646-41.393984-100.446433l-165.607756-165.607755a141.713149 141.713149 0 0 0-172.416604-21.731047l-33.948795-58.38429a211.42431 211.42431 0 0 1 255.204574 32.580661l165.607756 165.607756c39.357693 39.357693 61.08874 92.301268 61.088739 148.649266s-21.731046 109.291573-61.756898 148.649267a210.692518 210.692518 0 0 1-147.981108 60.420582z m0-96.405668a110.786975 110.786975 0 0 1-80.08352-33.248819l-166.30773-165.607755a113.236888 113.236888 0 0 1-28.508079-112.664181l65.161322 18.99478c-4.740741 16.290331 0 33.248819 11.54959 45.466567l165.607756 165.607755c17.658464 17.658464 46.8347 17.658464 64.493164 0s18.326622-46.8347 0-65.161322l-165.607755-164.939597a44.766592 44.766592 0 0 0-46.166543-10.849615l-21.031071-64.493164a113.682327 113.682327 0 0 1 115.400447 27.83992l165.607756 165.607755c21.731046 21.731046 33.248819 50.239125 33.248819 80.783495s-12.217748 59.052448-33.248819 80.08352a115.241362 115.241362 0 0 1-80.08352 32.580661z" fill="#3e69c5" p-id="4573"></path><path d="M394.022371 600.960477a209.674372 209.674372 0 0 1-148.649266-61.756898l-165.607756-165.607755a210.183445 210.183445 0 0 1 0-297.298533c81.451653-82.119811 215.178722-82.119811 297.298534 0l165.607755 165.607755c68.565747 68.565747 80.783495 178.525478 28.508079 261.313448l-57.016157-36.653244c35.285111-55.648024 27.139945-130.322645-18.99478-177.157345l-166.307731-164.939598C273.213025 68.820283 182.916232 68.820283 127.268208 124.468307s-54.979866 145.244842 0 200.924683l166.30773 165.607756c46.166542 46.166542 119.47303 54.979866 175.121054 20.362913l35.285111 57.684315a206.047228 206.047228 0 0 1-109.959732 31.912503z m0-97.042008a111.359682 111.359682 0 0 1-80.083519-33.248819L147.631121 305.061894a113.459607 113.459607 0 0 1 0-160.198856 112.473279 112.473279 0 0 1 80.08352-33.24882c30.54437 0 59.052448 11.54959 80.08352 33.24882l165.607755 165.607755a114.032314 114.032314 0 0 1 31.212528 102.482724l-66.529456-12.885906a48.489187 48.489187 0 0 0-12.217748-41.393984L260.263485 192.365896a45.752921 45.752921 0 0 0-32.580661-13.585881 45.880189 45.880189 0 0 0-32.580661 78.079045l166.30773 166.307731c10.849615 10.849615 25.803629 15.622173 41.393985 12.885906l12.885906 66.529456c-7.477007 0.668158-14.922197 1.368133-21.731047 1.368133zM1016.459359 368.823266h-67.865772V90.519513h-278.303754V22.653741h346.169526z" fill="#3e69c5" p-id="4574"></path><path d="M956.770569 34.712404l47.980115 47.980114-288.453393 288.453393-47.980115-47.980114 288.453393-288.453393zM300.225702 690.907283l47.980115 47.980114-285.080786 285.080786-47.980114-47.980114 285.080785-285.080786z" fill="#3e69c5" p-id="4575"></path></svg>