<?xml version="1.0" standalone="no"?><!DOCTYPE svg PUBLIC "-//W3C//DTD SVG 1.1//EN" "http://www.w3.org/Graphics/SVG/1.1/DTD/svg11.dtd"><svg t="1562639418935" class="icon" viewBox="0 0 1024 1024" version="1.1" xmlns="http://www.w3.org/2000/svg" p-id="20258" xmlns:xlink="http://www.w3.org/1999/xlink" width="200" height="200"><defs><style type="text/css"></style></defs><path d="M844.032 156.608a46.72 46.72 0 0 1 46.656 46.656v442.752a46.72 46.72 0 0 1-46.656 46.656H179.968a46.72 46.72 0 0 1-46.656-46.656V203.328a46.72 46.72 0 0 1 46.656-46.656h664.064m0-64.064H179.968c-61.12 0-110.656 49.536-110.656 110.656v442.752c0 61.184 49.536 110.656 110.656 110.656h664.128c61.12 0 110.656-49.472 110.656-110.656V203.328a110.72 110.72 0 0 0-110.72-110.72z" fill="#ffffff" p-id="20259"></path><path d="M480 701.44h64v223.04h-64z" fill="#ffffff" p-id="20260"></path><path d="M787.904 927.936H234.432a32 32 0 0 1 0-64h553.472a32 32 0 0 1 0 64z" fill="#ffffff" p-id="20261"></path></svg>