<?xml version="1.0" standalone="no"?><!DOCTYPE svg PUBLIC "-//W3C//DTD SVG 1.1//EN" "http://www.w3.org/Graphics/SVG/1.1/DTD/svg11.dtd"><svg t="1562916949696" class="icon" viewBox="0 0 1024 1024" version="1.1" xmlns="http://www.w3.org/2000/svg" p-id="47211" xmlns:xlink="http://www.w3.org/1999/xlink" width="200" height="200"><defs><style type="text/css"></style></defs><path d="M512 63.750973L97.618677 290.066926V733.136187l414.381323 223.128404 414.381323-226.315953V290.066926L512 63.750973z m31.875486-57.375876l414.381323 226.315954c19.125292 9.562646 31.875486 31.875486 31.875487 57.375875V733.136187c0 22.31284-12.750195 44.625681-31.875487 57.375875l-414.381323 226.315954c-19.125292 9.562646-41.438132 9.562646-60.563424 0L65.743191 787.324514c-19.125292-9.562646-31.875486-31.875486-31.875487-57.375876V290.066926c0-22.31284 12.750195-44.625681 31.875487-57.375875L480.124514 6.375097c19.125292-9.562646 44.625681-9.562646 63.750972 0z" fill="#3e69c5" p-id="47212"></path><path d="M512 784.136965c-12.750195 0-22.31284-3.187549-35.063035-9.562646l-133.877043-82.876265c-15.937743-9.562646-25.500389-22.31284-28.687938-38.250583-3.187549-15.937743 0-35.063035 9.562646-47.81323 6.375097-9.562646 12.750195-15.937743 19.125292-19.125292l133.877043-82.876264c19.125292-12.750195 47.81323-12.750195 66.938521 0l133.877043 82.876264c15.937743 9.562646 25.500389 22.31284 28.687938 38.250584 3.187549 15.937743 0 35.063035-9.562646 47.81323-6.375097 9.562646-12.750195 15.937743-19.125292 19.125291L543.875486 774.574319c-9.562646 6.375097-19.125292 9.562646-31.875486 9.562646zM378.122957 637.509728l133.877043 82.876264 133.877043-82.876264-133.877043-82.876265-133.877043 82.876265z" fill="#3e69c5" p-id="47213"></path><path d="M384.498054 350.63035c19.125292 0 31.875486 12.750195 31.875487 31.875487v95.626459c0 19.125292-12.750195 31.875486-31.875487 31.875486s-31.875486-12.750195-31.875486-31.875486v-95.626459c0-19.125292 12.750195-31.875486 31.875486-31.875487zM512 255.003891c19.125292 0 31.875486 12.750195 31.875486 31.875486v95.62646c0 19.125292-12.750195 31.875486-31.875486 31.875486s-31.875486-12.750195-31.875486-31.875486V286.879377c0-19.125292 12.750195-31.875486 31.875486-31.875486zM639.501946 350.63035c19.125292 0 31.875486 12.750195 31.875486 31.875487v95.626459c0 19.125292-12.750195 31.875486-31.875486 31.875486s-31.875486-12.750195-31.875487-31.875486v-95.626459c0-19.125292 12.750195-31.875486 31.875487-31.875487z" fill="#3e69c5" p-id="47214"></path></svg>