<?xml version="1.0" standalone="no"?><!DOCTYPE svg PUBLIC "-//W3C//DTD SVG 1.1//EN" "http://www.w3.org/Graphics/SVG/1.1/DTD/svg11.dtd"><svg t="1562914905377" class="icon" viewBox="0 0 1184 1024" version="1.1" xmlns="http://www.w3.org/2000/svg" p-id="3280" xmlns:xlink="http://www.w3.org/1999/xlink" width="231.25" height="200"><defs><style type="text/css"></style></defs><path fill="#777777" d="M46.208653 344.354383h33.831248v-302.064718a45.913837 45.913837 0 0 1 45.913837-42.289061h340.729003a45.309708 45.309708 0 0 1 35.039507 16.311495l157.677783 169.760372h399.329558a45.309708 45.309708 0 0 1 45.309708 45.309708V344.354383h34.435378a45.309708 45.309708 0 0 1 45.913837 45.309708v7.249553l-73.099662 581.172519a43.497319 43.497319 0 0 1-19.936271 32.622989 44.705578 44.705578 0 0 1-32.01886 12.686719H125.953738a44.705578 44.705578 0 0 1-31.41473-12.082589 48.330355 48.330355 0 0 1-21.144531-35.039508L0.294815 395.101256a45.309708 45.309708 0 0 1 39.872543-50.142743z m125.054793 0h841.552306V277.296016h-372.747863a45.309708 45.309708 0 0 1-35.643637-14.499107L447.350599 90.62002H171.263446v253.734363zM1087.727802 435.577928H96.955525l60.412944 492.365492H1027.314858l60.412944-492.365492z" p-id="3281"></path></svg>