<?xml version="1.0" standalone="no"?><!DOCTYPE svg PUBLIC "-//W3C//DTD SVG 1.1//EN" "http://www.w3.org/Graphics/SVG/1.1/DTD/svg11.dtd"><svg t="1562917329299" class="icon" viewBox="0 0 1024 1024" version="1.1" xmlns="http://www.w3.org/2000/svg" p-id="54257" xmlns:xlink="http://www.w3.org/1999/xlink" width="200" height="200"><defs><style type="text/css"></style></defs><path fill="#3e69c5" d="M898.8 544.9c16.2 0 29.3-13.1 29.3-29.3 0-16.2-13.1-29.3-29.3-29.3H542.9v-68.5h109.9c16.5 0 29.8-13.3 29.8-29.8V174.5c0-16.5-13.3-29.8-29.8-29.8H373.3c-16.5 0-29.8 13.3-29.8 29.8v213.4c0 16.5 13.3 29.8 29.8 29.8h109.9v68.5H127.3c-16.2 0-29.3 13.1-29.3 29.3 0 16.2 13.1 29.3 29.3 29.3h133.8v67.8H151.2c-16.5 0-29.8 13.3-29.8 29.8v213.4c0 16.5 13.3 29.8 29.8 29.8h279.5c16.5 0 29.8-13.3 29.8-29.8V642.5c0-16.5-13.3-29.8-29.8-29.8H320.8v-67.8h384.1v67.8H590.6c-16.5 0-29.8 13.3-29.8 29.8V856c0 16.5 13.3 29.8 29.8 29.8h279.5c16.5 0 29.8-13.3 29.8-29.8V642.5c0-16.5-13.3-29.8-29.8-29.8H764.5v-67.8h134.3zM403.1 204.3H623v153.8H403.1V204.3z m-2.2 621.8H181V672.3h219.9v153.8z m439.4 0H620.4V672.3h219.9v153.8z" p-id="54258"></path></svg>