<?xml version="1.0" standalone="no"?><!DOCTYPE svg PUBLIC "-//W3C//DTD SVG 1.1//EN" "http://www.w3.org/Graphics/SVG/1.1/DTD/svg11.dtd"><svg t="1562915840634" class="icon" viewBox="0 0 1024 1024" version="1.1" xmlns="http://www.w3.org/2000/svg" p-id="29267" xmlns:xlink="http://www.w3.org/1999/xlink" width="200" height="200"><defs><style type="text/css"></style></defs><path fill="#777777" d="M987.61307307 864.9887904c-17.33999147-130.985376-91.9611168-242.11588373-193.79727574-296.5852448 44.64234667-35.39493333 72.01346773-88.51189333 72.01346774-145.64239573 0-89.9385184-67.11142187-168.15185707-159.5375296-185.9404672-17.44696107-3.32806507-33.95957547 7.96159467-37.28764054 25.22081386-3.3586272 17.29087253 7.96159467 33.95957547 25.22081387 37.28764054 62.5401088 12.06682667 107.91377813 63.97109973 107.91377813 123.4320128 0 51.95775787-35.19300053 99.12262293-87.6408544 117.6174496-13.7095744 0.68002133-25.89537707 10.08788907-29.38389653 24.06925333-4.22966613 17.07365973 6.1267392 34.36453227 23.20039787 38.62476053 101.38535787 25.28957973 182.35370987 117.25942933 209.60476373 234.2372448L101.5095872 837.3098592c13.77724907-126.8222944 108.59816533-234.02003093 235.6060192-261.13791787 14.9386336-3.1872576 25.17715307-16.3728992 25.1858848-31.05284053 0.19756587-13.14088853-7.79240853-25.55482133-20.8328768-30.36845333-66.36481813-24.44364693-110.92966613-88.1964416-110.92966613-158.63592854 0-93.42157973 76.00627307-169.42785173 169.45841493-169.42785173 93.42157973 0 169.42785173 76.00627307 169.42785173 169.42785173 0 70.0476288-44.07475307 133.47624-109.7977536 158.21787414-2.3642464 0.78371627-4.62589013 1.84577173-6.74017706 3.1534208-0.09387093 0.05785067-0.18883413 0.11461013-0.28270507 0.17355306-0.25432533 0.1615456-0.50537707 0.32636693-0.75533653 0.49446187-0.24341013 0.1615456-0.48463787 0.32527467-0.72149867 0.4933696-0.0949632 0.06767467-0.18774293 0.13644053-0.28161387 0.20520747-3.77122453 2.73099947-6.834048 6.21624427-9.05312213 10.16320426-0.00436587 0.00654933-0.00764053 0.01418987-0.0120064 0.0207392-0.25105067 0.4475264-0.4911872 0.90050987-0.72040747 1.3589504-0.00873173 0.01855573-0.01855573 0.03711147-0.02728853 0.05566827-0.22922027 0.460624-0.44643413 0.92561493-0.6527328 1.39606293-0.00218347 0.00545813-0.00436587 0.0109152-0.00654933 0.01637334-2.50832853 5.72833173-3.34225493 12.19453547-2.139392 18.61598613 0.01418987 0.0753152 0.02510507 0.1506304 0.04038613 0.2248544 0.07094933 0.3645696 0.15281387 0.728048 0.23795307 1.09261867 0.03711147 0.16372907 0.07204053 0.32745813 0.11242773 0.49009493 0.0753152 0.30126187 0.1593632 0.60252267 0.24341013 0.90378453 0.06003413 0.2150304 0.1178848 0.43115307 0.183376 0.64509227 0.08295573 0.27615573 0.17464427 0.55231253 0.2663328 0.82846827 0.074224 0.2237632 0.14735573 0.4475264 0.22703787 0.66910613 0.03711147 0.10369493 0.06767467 0.20848107 0.1058784 0.31217707 0.0654912 0.17682773 0.1397152 0.34710507 0.20848107 0.5228416 0.084048 0.21612267 0.16809493 0.43115307 0.2565088 0.64400106 0.11461013 0.2783392 0.2346784 0.55340373 0.35692906 0.82628587 0.0873216 0.19538347 0.17573547 0.39076693 0.267424 0.58505813 0.138624 0.29471253 0.28161387 0.58614933 0.4289696 0.8754048 0.08077333 0.15827093 0.16263787 0.31545067 0.2455936 0.47263147 0.16809493 0.31763413 0.3405568 0.6309024 0.51847467 0.940896 0.06985813 0.12115947 0.1397152 0.24013547 0.21066453 0.36020373 0.19865813 0.33509867 0.40058987 0.66692267 0.6101632 0.99219734 0.05894293 0.09277973 0.12006827 0.18446827 0.1801024 0.27615573 0.2248544 0.341648 0.45298347 0.67892907 0.68984534 1.01075413 0.05785067 0.08077333 0.1167936 0.1604544 0.17573546 0.24122774 0.24122773 0.3307328 0.48572907 0.65819093 0.737872 0.97800746 0.07094933 0.09059627 0.14408107 0.17901013 0.21721387 0.2685152 0.24231893 0.30126187 0.48791253 0.5981568 0.74005547 0.8885024 0.10260373 0.118976 0.20957333 0.2346784 0.31435946 0.3525632 0.2248544 0.25105067 0.4497088 0.49991893 0.68220374 0.74333014 0.15827093 0.16591253 0.3209088 0.32745813 0.4824544 0.4911872 0.183376 0.18446827 0.36675307 0.36893547 0.554496 0.54903786 0.23249493 0.22267093 0.470448 0.4377024 0.70949226 0.653824 0.12225067 0.11024427 0.2445024 0.22267093 0.36893547 0.3307328 0.31435947 0.27506453 0.63745173 0.54248853 0.9638176 0.80554667 0.0534848 0.0425696 0.10478613 0.0873216 0.15827093 0.1288 2.72445013 2.16886293 5.838576 3.90984853 9.2616032 5.10725333 0.01418987 0.00545813 0.02837973 0.009824 0.0436608 0.01528107 0.44425173 0.15499627 0.89396053 0.3001696 1.3491264 0.43661013 0.0654912 0.019648 0.1298912 0.03820373 0.19538347 0.05675947 0.41477973 0.12115947 0.83174293 0.2357696 1.25416427 0.3405568 0.09932907 0.02510507 0.19865813 0.04802667 0.2979872 0.07094933 0.26087467 0.06221653 0.51956693 0.13098347 0.78371626 0.18774294 105.30175573 22.42213973 190.88617387 100.17048853 223.3841952 202.8274752 4.29188267 13.558944 16.82479147 22.23548907 30.35208 22.23548906 3.17197653 0 6.4061696-0.46608213 9.60980054-1.49320853 16.76257387-5.28735467 26.0612896-23.20039787 20.74337173-39.96188053-31.77652267-100.44882773-105.511328-181.19778347-199.9076416-222.9235712 53.2577664-43.50170133 86.02321173-109.47357013 86.02321173-180.36822294 0-128.53271573-104.58571413-233.11842987-233.11842986-233.11842986-128.56327893 0-233.14899307 104.58571413-233.14899307 233.11842986 0 71.08894507 32.92262613 137.20052907 86.4216192 180.6913152C124.05725227 594.04023147 36.10858667 724.00721387 36.10858667 869.15624c0 17.6019584 14.2433312 31.84528853 31.84528853 31.84528853l864.83290773 0c4.11178027 0 8.03691093-0.78589867 11.64331414-2.2016096 3.61841067 1.4233504 7.53371627 2.2016096 11.58764693 2.2016096 1.3687744 0 2.79867413-0.09387093 4.19801173-0.2794304C977.6616256 898.42006827 989.91510293 882.40518933 987.61307307 864.9887904z" p-id="29268"></path></svg>