<?xml version="1.0" standalone="no"?><!DOCTYPE svg PUBLIC "-//W3C//DTD SVG 1.1//EN" "http://www.w3.org/Graphics/SVG/1.1/DTD/svg11.dtd"><svg t="1562917779336" class="icon" viewBox="0 0 1092 1024" version="1.1" xmlns="http://www.w3.org/2000/svg" p-id="70592" xmlns:xlink="http://www.w3.org/1999/xlink" width="213.28125" height="200"><defs><style type="text/css"></style></defs><path fill="#3e69c5" d="M68.267 136.533H0v750.729C0 963.038 60.962 1024 136.124 1024h820.019a136.533 136.533 0 0 0 136.124-136.738v-613.99c0-75.777-60.962-136.739-136.124-136.739h-410.01V204.8h409.122A68.267 68.267 0 0 1 1024 272.794V887.74a68.267 68.267 0 0 1-68.745 67.993H137.011a68.267 68.267 0 0 1-68.744-67.993V136.533z" p-id="70593"></path><path fill="#3e69c5" d="M204.8 546.133h409.6V614.4H204.8v-68.267z m0 204.8h409.6V819.2H204.8v-68.267z m0-409.6h409.6V409.6H204.8v-68.267z m546.133 204.8h136.534V614.4H750.933v-68.267z m0 204.8h136.534V819.2H750.933v-68.267z m0-409.6h136.534V409.6H750.933v-68.267zM0 102.4C0 45.875 45.602 0 102.741 0h340.651c56.73 0 118.238 43.418 137.148 96.393L619.247 204.8H0V102.4z m68.267 34.133V204.8h475.409l-35.977-74.684c-16.52-34.201-60.074-61.85-97.416-61.85H135.919a68.267 68.267 0 0 0-67.652 68.267z" p-id="70594"></path></svg>