<?xml version="1.0" standalone="no"?><!DOCTYPE svg PUBLIC "-//W3C//DTD SVG 1.1//EN" "http://www.w3.org/Graphics/SVG/1.1/DTD/svg11.dtd"><svg t="1562571940112" class="icon" viewBox="0 0 1024 1024" version="1.1" xmlns="http://www.w3.org/2000/svg" p-id="2247" xmlns:xlink="http://www.w3.org/1999/xlink" width="200" height="200"><defs><style type="text/css"></style></defs><path d="M0 280A72 72 0 0 1 72 208h880a72 72 0 0 1 72 72v640a72 72 0 0 1-72 72h-880A72 72 0 0 1 0 920v-640z m48 0v640A24 24 0 0 0 72 944h880a24 24 0 0 0 24-24v-640a24 24 0 0 0-24-24h-880A24 24 0 0 0 48 280zM272 208V104A24 24 0 0 1 296 80h432A24 24 0 0 1 752 104V208h48V104A72 72 0 0 0 728 32h-432A72 72 0 0 0 224 104V208h48z" fill="#3e69c5" p-id="2248"></path><path d="M272 720h112V480h-112v240z m-8-288h128a40 40 0 0 1 40 40v256a40 40 0 0 1-40 40h-128a40 40 0 0 1-40-40v-256a40 40 0 0 1 40-40zM640 720h112V480h-112v240z m-8-288h128a40 40 0 0 1 40 40v256a40 40 0 0 1-40 40h-128a40 40 0 0 1-40-40v-256a40 40 0 0 1 40-40zM48 632h176v-48H48v48z m384 0h160v-48H432v48z m368 0h176v-48H800v48z" fill="#3e69c5" p-id="2249"></path></svg>