<?xml version="1.0" standalone="no"?><!DOCTYPE svg PUBLIC "-//W3C//DTD SVG 1.1//EN" "http://www.w3.org/Graphics/SVG/1.1/DTD/svg11.dtd"><svg t="1593495179549" class="icon" viewBox="0 0 1024 1024" version="1.1" xmlns="http://www.w3.org/2000/svg" p-id="2613" xmlns:xlink="http://www.w3.org/1999/xlink" width="64" height="64"><defs><style type="text/css"></style></defs><path d="M247.637333 480.199111a28.444444 28.444444 0 1 0-40.163555 40.391111l284.444444 283.136a28.444444 28.444444 0 0 0 40.163556 0l284.444444-283.192889a28.444444 28.444444 0 1 0-40.163555-40.334222L512 743.424 247.637333 480.142222z" fill="#ffffff" p-id="2614"></path><path d="M247.637333 252.643556a28.444444 28.444444 0 0 0-40.163555 40.391111l284.444444 283.136a28.444444 28.444444 0 0 0 40.163556 0l284.444444-283.192889a28.444444 28.444444 0 1 0-40.163555-40.334222L512 515.868444 247.637333 252.586667z" fill="#ffffff" p-id="2615"></path></svg>
